<svg width="800" height="240" viewBox="0 0 800 240" xmlns="http://www.w3.org/2000/svg">
  <style>
    .title { font: 700 16px 'Segoe UI', Roboto, Ubuntu, 'Helvetica Neue', Arial; }
    .axis  { font: 12px 'Segoe UI', Roboto, Ubuntu, Arial; fill: #888; }
    rect { fill: #00bcd4; opacity: 0.85; }
    rect:hover { opacity: 1.0; }
    @keyframes grow { from { transform: scaleY(0); } to { transform: scaleY(1); } }
  </style>
  <rect x="0" y="0" width="800" height="240" fill="#0b1220" rx="16" />
  <text x="30" y="22" class="title" fill="#ffffff">This Month Activity (last 30 days)</text>
  <g>
    
        <g class="bar" transform="translate(30.00, 210.00)">
          <title>2025-10-29: 0</title>
          <rect x="0" y="0" width="19.73" height="0.00" rx="6" ry="6"
                style="animation: grow 0.8s 0.00s ease-out forwards; transform-origin: bottom;">
          </rect>
        </g>
        
        <g class="bar" transform="translate(54.67, 210.00)">
          <title>2025-10-30: 0</title>
          <rect x="0" y="0" width="19.73" height="0.00" rx="6" ry="6"
                style="animation: grow 0.8s 0.03s ease-out forwards; transform-origin: bottom;">
          </rect>
        </g>
        
        <g class="bar" transform="translate(79.33, 210.00)">
          <title>2025-10-31: 0</title>
          <rect x="0" y="0" width="19.73" height="0.00" rx="6" ry="6"
                style="animation: grow 0.8s 0.06s ease-out forwards; transform-origin: bottom;">
          </rect>
        </g>
        
        <g class="bar" transform="translate(104.00, 210.00)">
          <title>2025-11-01: 0</title>
          <rect x="0" y="0" width="19.73" height="0.00" rx="6" ry="6"
                style="animation: grow 0.8s 0.09s ease-out forwards; transform-origin: bottom;">
          </rect>
        </g>
        
        <g class="bar" transform="translate(128.67, 30.00)">
          <title>2025-11-02: 1</title>
          <rect x="0" y="0" width="19.73" height="180.00" rx="6" ry="6"
                style="animation: grow 0.8s 0.12s ease-out forwards; transform-origin: bottom;">
          </rect>
        </g>
        
        <g class="bar" transform="translate(153.33, 210.00)">
          <title>2025-11-03: 0</title>
          <rect x="0" y="0" width="19.73" height="0.00" rx="6" ry="6"
                style="animation: grow 0.8s 0.15s ease-out forwards; transform-origin: bottom;">
          </rect>
        </g>
        
        <g class="bar" transform="translate(178.00, 210.00)">
          <title>2025-11-04: 0</title>
          <rect x="0" y="0" width="19.73" height="0.00" rx="6" ry="6"
                style="animation: grow 0.8s 0.18s ease-out forwards; transform-origin: bottom;">
          </rect>
        </g>
        
        <g class="bar" transform="translate(202.67, 210.00)">
          <title>2025-11-05: 0</title>
          <rect x="0" y="0" width="19.73" height="0.00" rx="6" ry="6"
                style="animation: grow 0.8s 0.21s ease-out forwards; transform-origin: bottom;">
          </rect>
        </g>
        
        <g class="bar" transform="translate(227.33, 210.00)">
          <title>2025-11-06: 0</title>
          <rect x="0" y="0" width="19.73" height="0.00" rx="6" ry="6"
                style="animation: grow 0.8s 0.24s ease-out forwards; transform-origin: bottom;">
          </rect>
        </g>
        
        <g class="bar" transform="translate(252.00, 210.00)">
          <title>2025-11-07: 0</title>
          <rect x="0" y="0" width="19.73" height="0.00" rx="6" ry="6"
                style="animation: grow 0.8s 0.27s ease-out forwards; transform-origin: bottom;">
          </rect>
        </g>
        
        <g class="bar" transform="translate(276.67, 210.00)">
          <title>2025-11-08: 0</title>
          <rect x="0" y="0" width="19.73" height="0.00" rx="6" ry="6"
                style="animation: grow 0.8s 0.30s ease-out forwards; transform-origin: bottom;">
          </rect>
        </g>
        
        <g class="bar" transform="translate(301.33, 210.00)">
          <title>2025-11-09: 0</title>
          <rect x="0" y="0" width="19.73" height="0.00" rx="6" ry="6"
                style="animation: grow 0.8s 0.33s ease-out forwards; transform-origin: bottom;">
          </rect>
        </g>
        
        <g class="bar" transform="translate(326.00, 210.00)">
          <title>2025-11-10: 0</title>
          <rect x="0" y="0" width="19.73" height="0.00" rx="6" ry="6"
                style="animation: grow 0.8s 0.36s ease-out forwards; transform-origin: bottom;">
          </rect>
        </g>
        
        <g class="bar" transform="translate(350.67, 210.00)">
          <title>2025-11-11: 0</title>
          <rect x="0" y="0" width="19.73" height="0.00" rx="6" ry="6"
                style="animation: grow 0.8s 0.39s ease-out forwards; transform-origin: bottom;">
          </rect>
        </g>
        
        <g class="bar" transform="translate(375.33, 210.00)">
          <title>2025-11-12: 0</title>
          <rect x="0" y="0" width="19.73" height="0.00" rx="6" ry="6"
                style="animation: grow 0.8s 0.42s ease-out forwards; transform-origin: bottom;">
          </rect>
        </g>
        
        <g class="bar" transform="translate(400.00, 210.00)">
          <title>2025-11-13: 0</title>
          <rect x="0" y="0" width="19.73" height="0.00" rx="6" ry="6"
                style="animation: grow 0.8s 0.45s ease-out forwards; transform-origin: bottom;">
          </rect>
        </g>
        
        <g class="bar" transform="translate(424.67, 210.00)">
          <title>2025-11-14: 0</title>
          <rect x="0" y="0" width="19.73" height="0.00" rx="6" ry="6"
                style="animation: grow 0.8s 0.48s ease-out forwards; transform-origin: bottom;">
          </rect>
        </g>
        
        <g class="bar" transform="translate(449.33, 210.00)">
          <title>2025-11-15: 0</title>
          <rect x="0" y="0" width="19.73" height="0.00" rx="6" ry="6"
                style="animation: grow 0.8s 0.51s ease-out forwards; transform-origin: bottom;">
          </rect>
        </g>
        
        <g class="bar" transform="translate(474.00, 210.00)">
          <title>2025-11-16: 0</title>
          <rect x="0" y="0" width="19.73" height="0.00" rx="6" ry="6"
                style="animation: grow 0.8s 0.54s ease-out forwards; transform-origin: bottom;">
          </rect>
        </g>
        
        <g class="bar" transform="translate(498.67, 210.00)">
          <title>2025-11-17: 0</title>
          <rect x="0" y="0" width="19.73" height="0.00" rx="6" ry="6"
                style="animation: grow 0.8s 0.57s ease-out forwards; transform-origin: bottom;">
          </rect>
        </g>
        
        <g class="bar" transform="translate(523.33, 210.00)">
          <title>2025-11-18: 0</title>
          <rect x="0" y="0" width="19.73" height="0.00" rx="6" ry="6"
                style="animation: grow 0.8s 0.60s ease-out forwards; transform-origin: bottom;">
          </rect>
        </g>
        
        <g class="bar" transform="translate(548.00, 210.00)">
          <title>2025-11-19: 0</title>
          <rect x="0" y="0" width="19.73" height="0.00" rx="6" ry="6"
                style="animation: grow 0.8s 0.63s ease-out forwards; transform-origin: bottom;">
          </rect>
        </g>
        
        <g class="bar" transform="translate(572.67, 210.00)">
          <title>2025-11-20: 0</title>
          <rect x="0" y="0" width="19.73" height="0.00" rx="6" ry="6"
                style="animation: grow 0.8s 0.66s ease-out forwards; transform-origin: bottom;">
          </rect>
        </g>
        
        <g class="bar" transform="translate(597.33, 210.00)">
          <title>2025-11-21: 0</title>
          <rect x="0" y="0" width="19.73" height="0.00" rx="6" ry="6"
                style="animation: grow 0.8s 0.69s ease-out forwards; transform-origin: bottom;">
          </rect>
        </g>
        
        <g class="bar" transform="translate(622.00, 210.00)">
          <title>2025-11-22: 0</title>
          <rect x="0" y="0" width="19.73" height="0.00" rx="6" ry="6"
                style="animation: grow 0.8s 0.72s ease-out forwards; transform-origin: bottom;">
          </rect>
        </g>
        
        <g class="bar" transform="translate(646.67, 210.00)">
          <title>2025-11-23: 0</title>
          <rect x="0" y="0" width="19.73" height="0.00" rx="6" ry="6"
                style="animation: grow 0.8s 0.75s ease-out forwards; transform-origin: bottom;">
          </rect>
        </g>
        
        <g class="bar" transform="translate(671.33, 210.00)">
          <title>2025-11-24: 0</title>
          <rect x="0" y="0" width="19.73" height="0.00" rx="6" ry="6"
                style="animation: grow 0.8s 0.78s ease-out forwards; transform-origin: bottom;">
          </rect>
        </g>
        
        <g class="bar" transform="translate(696.00, 210.00)">
          <title>2025-11-25: 0</title>
          <rect x="0" y="0" width="19.73" height="0.00" rx="6" ry="6"
                style="animation: grow 0.8s 0.81s ease-out forwards; transform-origin: bottom;">
          </rect>
        </g>
        
        <g class="bar" transform="translate(720.67, 210.00)">
          <title>2025-11-26: 0</title>
          <rect x="0" y="0" width="19.73" height="0.00" rx="6" ry="6"
                style="animation: grow 0.8s 0.84s ease-out forwards; transform-origin: bottom;">
          </rect>
        </g>
        
        <g class="bar" transform="translate(745.33, 210.00)">
          <title>2025-11-27: 0</title>
          <rect x="0" y="0" width="19.73" height="0.00" rx="6" ry="6"
                style="animation: grow 0.8s 0.87s ease-out forwards; transform-origin: bottom;">
          </rect>
        </g>
        
  </g>
  <!-- x-axis ticks (週目盛りだけ) -->
  <g class="axis">
    <text x="30" y="232">10-29</text>
    <text x="400.00" y="232">11-13</text>
    <text x="734.00" y="232">11-27</text>
  </g>
</svg>